<svg width="25" height="25" viewBox="0 0 25 25" fill="none" xmlns="http://www.w3.org/2000/svg">
<g clip-path="url(#clip0_269_1094)">
<path d="M19.5467 24.1071C19.0536 24.1071 18.6538 23.7073 18.6538 23.2143C18.6538 22.7212 19.0536 22.3214 19.5467 22.3214C20.0399 22.3214 20.4395 22.7212 20.4395 23.2143C20.4395 23.7073 20.0399 24.1071 19.5467 24.1071Z" stroke="white" stroke-linecap="round" stroke-linejoin="round"/>
<path d="M7.93973 24.1071C7.44663 24.1071 7.04688 23.7073 7.04688 23.2143C7.04688 22.7212 7.44663 22.3214 7.93973 22.3214C8.43286 22.3214 8.83259 22.7212 8.83259 23.2143C8.83259 23.7073 8.43286 24.1071 7.93973 24.1071Z" stroke="white" stroke-linecap="round" stroke-linejoin="round"/>
<path d="M17.1511 11.6071H11.7939" stroke="white" stroke-linecap="round" stroke-linejoin="round"/>
<path d="M14.4727 8.92859V14.2857" stroke="white" stroke-linecap="round" stroke-linejoin="round"/>
<path d="M0.893066 0.892822H5.35735L5.82728 5.35711M5.82728 5.35711L6.97478 16.2583C7.07044 17.1672 7.83682 17.8571 8.75067 17.8571H20.0345C20.854 17.8571 21.5682 17.2994 21.767 16.5045L23.9991 7.57593C24.2809 6.44888 23.4284 5.35711 22.2666 5.35711H5.82728Z" stroke="white" stroke-linecap="round" stroke-linejoin="round"/>
</g>
<defs>
<clipPath id="clip0_269_1094">
<rect width="25" height="25" fill="white"/>
</clipPath>
</defs>
</svg>
