<svg width="24" height="24" viewBox="0 0 24 24" fill="none" xmlns="http://www.w3.org/2000/svg">
<mask id="path-1-inside-1_672_1180" fill="white">
<path d="M5.53999 19.5196C4.92999 19.5196 4.35999 19.3096 3.94999 18.9196C3.42999 18.4296 3.17999 17.6896 3.26999 16.8896L3.63999 13.6496C3.70999 13.0396 4.07999 12.2296 4.50999 11.7896L12.72 3.09956C14.77 0.929561 16.91 0.869561 19.08 2.91956C21.25 4.96956 21.31 7.10956 19.26 9.27956L11.05 17.9696C10.63 18.4196 9.84999 18.8396 9.23999 18.9396L6.01999 19.4896C5.84999 19.4996 5.69999 19.5196 5.53999 19.5196ZM15.93 2.90956C15.16 2.90956 14.49 3.38956 13.81 4.10956L5.59999 12.8096C5.39999 13.0196 5.16999 13.5196 5.12999 13.8096L4.75999 17.0496C4.71999 17.3796 4.79999 17.6496 4.97999 17.8196C5.15999 17.9896 5.42999 18.0496 5.75999 17.9996L8.97999 17.4496C9.26999 17.3996 9.74999 17.1396 9.94999 16.9296L18.16 8.23956C19.4 6.91956 19.85 5.69956 18.04 3.99956C17.24 3.22956 16.55 2.90956 15.93 2.90956Z"/>
</mask>
<path d="M5.53999 19.5196C4.92999 19.5196 4.35999 19.3096 3.94999 18.9196C3.42999 18.4296 3.17999 17.6896 3.26999 16.8896L3.63999 13.6496C3.70999 13.0396 4.07999 12.2296 4.50999 11.7896L12.72 3.09956C14.77 0.929561 16.91 0.869561 19.08 2.91956C21.25 4.96956 21.31 7.10956 19.26 9.27956L11.05 17.9696C10.63 18.4196 9.84999 18.8396 9.23999 18.9396L6.01999 19.4896C5.84999 19.4996 5.69999 19.5196 5.53999 19.5196ZM15.93 2.90956C15.16 2.90956 14.49 3.38956 13.81 4.10956L5.59999 12.8096C5.39999 13.0196 5.16999 13.5196 5.12999 13.8096L4.75999 17.0496C4.71999 17.3796 4.79999 17.6496 4.97999 17.8196C5.15999 17.9896 5.42999 18.0496 5.75999 17.9996L8.97999 17.4496C9.26999 17.3996 9.74999 17.1396 9.94999 16.9296L18.16 8.23956C19.4 6.91956 19.85 5.69956 18.04 3.99956C17.24 3.22956 16.55 2.90956 15.93 2.90956Z" fill="#484848"/>
<path d="M3.94999 18.9196L5.32843 17.4704L5.32159 17.464L3.94999 18.9196ZM3.26999 16.8896L1.2829 16.6626L1.28252 16.666L3.26999 16.8896ZM3.63999 13.6496L1.65303 13.4215L1.6529 13.4226L3.63999 13.6496ZM4.50999 11.7896L5.94036 13.1874L5.95217 13.1753L5.96378 13.1631L4.50999 11.7896ZM12.72 3.09956L14.1738 4.47305L14.1738 4.473L12.72 3.09956ZM19.26 9.27956L20.7138 10.6531L20.7138 10.653L19.26 9.27956ZM11.05 17.9696L9.59617 16.596L9.58788 16.6049L11.05 17.9696ZM9.23999 18.9396L8.91643 16.9659L8.90325 16.9681L9.23999 18.9396ZM6.01999 19.4896L6.13743 21.4861L6.24777 21.4796L6.35672 21.461L6.01999 19.4896ZM13.81 4.10956L12.356 2.73631L12.3554 2.7369L13.81 4.10956ZM5.59999 12.8096L7.04828 14.1889L7.05457 14.1822L5.59999 12.8096ZM5.12999 13.8096L3.14874 13.5363L3.14555 13.5594L3.1429 13.5826L5.12999 13.8096ZM4.75999 17.0496L6.7455 17.2902L6.74707 17.2765L4.75999 17.0496ZM5.75999 17.9996L6.0596 19.977L6.07819 19.9742L6.09672 19.971L5.75999 17.9996ZM8.97999 17.4496L9.31672 19.421L9.3198 19.4205L8.97999 17.4496ZM9.94999 16.9296L11.3983 18.3089L11.4038 18.3031L9.94999 16.9296ZM18.16 8.23956L19.6138 9.61306L19.6177 9.60891L18.16 8.23956ZM18.04 3.99956L16.6531 5.44053L16.6619 5.44901L16.6708 5.45738L18.04 3.99956ZM5.53999 17.5196C5.37993 17.5196 5.32323 17.4655 5.32841 17.4704L2.57156 20.3687C3.39675 21.1536 4.48004 21.5196 5.53999 21.5196V17.5196ZM5.32159 17.464C5.31791 17.4605 5.22835 17.3718 5.25745 17.1132L1.28252 16.666C1.13162 18.0074 1.54206 19.3986 2.57838 20.3751L5.32159 17.464ZM5.25707 17.1165L5.62707 13.8765L1.6529 13.4226L1.2829 16.6626L5.25707 17.1165ZM5.62695 13.8776C5.6316 13.8371 5.66419 13.6914 5.75391 13.4982C5.79446 13.4109 5.83743 13.3342 5.87689 13.2738C5.91807 13.2108 5.94249 13.1853 5.94036 13.1874L3.07961 10.3917C2.66128 10.8198 2.34504 11.3419 2.12606 11.8134C1.90578 12.2877 1.71838 12.8521 1.65303 13.4215L5.62695 13.8776ZM5.96378 13.1631L14.1738 4.47305L11.2662 1.72607L3.05619 10.4161L5.96378 13.1631ZM14.1738 4.473C14.9821 3.61745 15.5612 3.43615 15.9114 3.42626C16.2619 3.41637 16.8507 3.56488 17.7065 4.3734L20.4534 1.46572C19.1393 0.224247 17.5731 -0.622247 15.7985 -0.572142C14.0238 -0.522032 12.5079 0.411675 11.2661 1.72612L14.1738 4.473ZM17.7065 4.3734C18.5621 5.18165 18.7434 5.76076 18.7533 6.11101C18.7632 6.46146 18.6147 7.05026 17.8061 7.90612L20.7138 10.653C21.9553 9.33886 22.8018 7.77266 22.7517 5.99811C22.7016 4.22336 21.7679 2.70747 20.4534 1.46572L17.7065 4.3734ZM17.8062 7.90607L9.59619 16.5961L12.5038 19.3431L20.7138 10.6531L17.8062 7.90607ZM9.58788 16.6049C9.56516 16.6293 9.45775 16.7231 9.27047 16.8236C9.18617 16.8688 9.10483 16.9049 9.0346 16.9306C9.00016 16.9432 8.97176 16.952 8.95007 16.9579C8.9394 16.9608 8.93109 16.9628 8.92518 16.9641C8.91923 16.9654 8.91634 16.9659 8.91644 16.9659L9.56354 20.9132C10.6138 20.741 11.793 20.1046 12.5121 19.3342L9.58788 16.6049ZM8.90325 16.9681L5.68325 17.5181L6.35672 21.461L9.57672 20.911L8.90325 16.9681ZM5.90254 17.493C5.83888 17.4968 5.78109 17.5012 5.73413 17.505C5.71099 17.5069 5.68803 17.5088 5.66934 17.5104C5.64953 17.512 5.6333 17.5134 5.618 17.5146C5.55462 17.5196 5.53973 17.5196 5.53999 17.5196V21.5196C5.70024 21.5196 5.84035 21.5095 5.93447 21.502C6.04984 21.4929 6.07927 21.4895 6.13743 21.4861L5.90254 17.493ZM15.93 0.909561C14.2802 0.909561 13.1033 1.94502 12.356 2.73631L15.264 5.48281C15.5433 5.18707 15.7383 5.03098 15.8679 4.95292C15.9781 4.8866 15.9851 4.90956 15.93 4.90956V0.909561ZM12.3554 2.7369L4.1454 11.4369L7.05457 14.1822L15.2646 5.48222L12.3554 2.7369ZM4.15171 11.4303C3.83314 11.7648 3.6167 12.1679 3.49262 12.4338C3.36491 12.7075 3.20745 13.1106 3.14874 13.5363L7.11123 14.0828C7.10425 14.1334 7.09635 14.1666 7.09321 14.1791C7.08971 14.1931 7.08794 14.1977 7.08954 14.193C7.09325 14.1818 7.10265 14.1568 7.11735 14.1253C7.13221 14.0935 7.14376 14.0737 7.14637 14.0695C7.14721 14.0681 7.1419 14.0769 7.12947 14.0936C7.11805 14.109 7.09141 14.1436 7.04826 14.1889L4.15171 11.4303ZM3.1429 13.5826L2.7729 16.8226L6.74707 17.2765L7.11707 14.0365L3.1429 13.5826ZM2.77452 16.8089C2.68334 17.5611 2.83181 18.5417 3.60674 19.2736L6.35323 16.3655C6.76816 16.7574 6.75664 17.198 6.74545 17.2902L2.77452 16.8089ZM3.60674 19.2736C4.38968 20.013 5.36977 20.0815 6.0596 19.977L5.46038 16.0221C5.49021 16.0176 5.93029 15.9661 6.35323 16.3655L3.60674 19.2736ZM6.09672 19.971L9.31672 19.421L8.64325 15.4781L5.42325 16.0281L6.09672 19.971ZM9.3198 19.4205C9.77044 19.3428 10.1815 19.1533 10.4462 19.0109C10.7121 18.8679 11.0901 18.6325 11.3983 18.3089L8.50171 15.5503C8.5411 15.5089 8.57098 15.4832 8.58394 15.4724C8.59809 15.4607 8.60511 15.4559 8.60327 15.4572C8.59819 15.4607 8.57952 15.473 8.55126 15.4882C8.52292 15.5035 8.50318 15.5118 8.49882 15.5135C8.49746 15.5141 8.50639 15.5105 8.52527 15.5049C8.54272 15.4997 8.58218 15.4886 8.64017 15.4786L9.3198 19.4205ZM11.4038 18.3031L19.6138 9.61305L16.7062 6.86607L8.49619 15.5561L11.4038 18.3031ZM19.6177 9.60891C20.2974 8.88529 21.1541 7.80607 21.2401 6.38272C21.3328 4.84924 20.5151 3.58047 19.4092 2.54174L16.6708 5.45738C17.3748 6.11866 17.2372 6.30988 17.2474 6.1414C17.25 6.09873 17.2621 6.12876 17.1862 6.26028C17.1049 6.40137 16.9575 6.59854 16.7023 6.87021L19.6177 9.60891ZM19.4269 2.55859C18.4446 1.6131 17.2818 0.909561 15.93 0.909561V4.90956C15.8182 4.90956 16.0354 4.84602 16.6531 5.44053L19.4269 2.55859Z" fill="#484848" mask="url(#path-1-inside-1_672_1180)"/>
<path d="M17.3404 10.9508C17.3204 10.9508 17.2904 10.9508 17.2704 10.9508C14.1504 10.6408 11.6404 8.27083 11.1604 5.17083C11.1004 4.76083 11.3804 4.38083 11.7904 4.31083C12.2004 4.25083 12.5804 4.53083 12.6504 4.94083C13.0304 7.36083 14.9904 9.22083 17.4304 9.46083C17.8404 9.50083 18.1404 9.87083 18.1004 10.2808C18.0504 10.6608 17.7204 10.9508 17.3404 10.9508Z" fill="#484848"/>
<path d="M21 22.75H3C2.59 22.75 2.25 22.41 2.25 22C2.25 21.59 2.59 21.25 3 21.25H21C21.41 21.25 21.75 21.59 21.75 22C21.75 22.41 21.41 22.75 21 22.75Z" fill="#484848"/>
</svg>
