<svg width="24" height="24" viewBox="0 0 24 24" fill="none" xmlns="http://www.w3.org/2000/svg">
<path fill-rule="evenodd" clip-rule="evenodd" d="M0 12C0 5.37258 5.37258 0 12 0C18.6274 0 24 5.37258 24 12C24 18.6274 18.6274 24 12 24C5.37258 24 0 18.6274 0 12ZM15.1212 9.64306C15.202 9.64306 15.282 9.64386 15.3616 9.64826C14.9408 7.35506 12.5724 5.60026 9.714 5.60026C6.558 5.60026 4 7.73986 4 10.3791C4 11.9267 4.8792 13.3023 6.2428 14.1755L6.2952 14.2087L5.7432 15.9379L7.8088 14.8859C7.8088 14.8859 7.8736 14.9043 7.906 14.9139C8.4736 15.0719 9.0824 15.1575 9.714 15.1575C9.8428 15.1575 9.9708 15.1523 10.098 15.1459C9.9808 14.7823 9.9164 14.4003 9.9164 14.0059C9.9164 11.5959 12.2476 9.64306 15.1212 9.64306ZM15.1648 18.0713C12.4984 18.0713 10.3364 16.2637 10.3364 14.0337C10.3364 11.8045 12.4984 9.99685 15.1648 9.99685C17.83 9.99685 19.9912 11.8045 19.9912 14.0337C19.9912 15.3417 19.248 16.5037 18.0964 17.2413L18.052 17.2689L18.5184 18.7304L16.774 17.8409C16.774 17.8409 16.7192 17.8573 16.6916 17.8645C16.2124 17.9985 15.698 18.0713 15.1648 18.0713Z" fill="white"/>
<path d="M11.7024 7.95654C12.1456 7.95654 12.5044 8.30395 12.5044 8.73341C12.5044 9.16247 12.1456 9.51109 11.7024 9.51109C11.2588 9.51109 10.9004 9.16247 10.9004 8.73341C10.9004 8.30395 11.2588 7.95654 11.7024 7.95654" fill="white"/>
<path d="M16.166 12.6433C16.166 12.2815 16.4692 11.9873 16.8436 11.9873C17.2184 11.9873 17.5216 12.2815 17.5216 12.6433C17.5216 13.0067 17.2184 13.3013 16.8436 13.3013C16.4692 13.3013 16.166 13.0067 16.166 12.6433" fill="white"/>
<path d="M12.8064 12.6433C12.8064 12.2815 13.1104 11.9873 13.4844 11.9873C13.8592 11.9873 14.1628 12.2815 14.1628 12.6433C14.1628 13.0067 13.8592 13.3013 13.4844 13.3013C13.1104 13.3013 12.8064 13.0067 12.8064 12.6433" fill="white"/>
<path d="M7.72562 9.51109C7.28242 9.51109 6.92322 9.16247 6.92322 8.73341C6.92322 8.30395 7.28242 7.95654 7.72562 7.95654C8.16882 7.95654 8.52882 8.30395 8.52882 8.73341C8.52882 9.16247 8.16882 9.51109 7.72562 9.51109" fill="white"/>
</svg>
