<svg width="16" height="16" viewBox="0 0 16 16" fill="none" xmlns="http://www.w3.org/2000/svg">
<path d="M8.09926 0.498132C8.13161 0.498232 8.16395 0.498172 8.19629 0.498071C8.44746 0.497409 8.69765 0.510248 8.94725 0.538853C8.95601 0.539847 8.956 0.539847 8.96494 0.540862C9.16803 0.564256 9.36978 0.595479 9.57031 0.635189C9.57538 0.636192 9.58045 0.637196 9.58567 0.63823C9.90485 0.70176 10.2173 0.789042 10.525 0.89471C10.5367 0.898723 10.5484 0.902713 10.5601 0.906697C10.7575 0.974008 10.9507 1.05316 11.1406 1.1391C11.1477 1.14228 11.1547 1.14545 11.162 1.14873C11.3349 1.2273 11.5065 1.31046 11.6707 1.40601C11.691 1.41762 11.7116 1.42864 11.7323 1.43967C11.9044 1.53183 12.0688 1.63921 12.2305 1.74847C12.2368 1.75274 12.2368 1.75274 12.2432 1.75709C12.3063 1.79982 12.3682 1.84416 12.4297 1.8891C12.4344 1.89254 12.4391 1.89598 12.444 1.89953C12.5023 1.94219 12.5602 1.98528 12.6172 2.02972C12.6203 2.03217 12.6235 2.03462 12.6268 2.03714C12.7081 2.1002 12.7873 2.16584 12.8656 2.23261C12.8755 2.24109 12.8855 2.24955 12.8955 2.25801C12.935 2.2916 12.9737 2.32588 13.0118 2.3611C13.0245 2.3728 13.0373 2.38426 13.0504 2.39556C13.0972 2.43617 13.1426 2.47833 13.186 2.52251C13.196 2.53234 13.2062 2.54137 13.2169 2.55038C13.2514 2.58035 13.2833 2.61293 13.3155 2.64526C13.3265 2.65628 13.3375 2.66728 13.3486 2.67827C13.3805 2.71017 13.4121 2.742 13.4413 2.77639C13.4521 2.78892 13.4637 2.80044 13.4756 2.81195C13.4951 2.83122 13.5134 2.85099 13.5312 2.8718C13.5433 2.88557 13.5557 2.89896 13.5682 2.91234C13.5978 2.94401 13.6259 2.97631 13.6531 3.01011C13.6667 3.02659 13.6808 3.04233 13.6953 3.05804C13.7212 3.0862 13.7455 3.11529 13.7695 3.14505C13.7785 3.15618 13.7877 3.16722 13.7968 3.17825C13.8353 3.22461 13.8731 3.27124 13.9094 3.31927C13.9195 3.3325 13.9296 3.34568 13.9397 3.35886C13.9872 3.42076 14.0339 3.48316 14.0791 3.5467C14.0874 3.55834 14.0958 3.56994 14.1041 3.58154C14.2196 3.74255 14.327 3.90992 14.4277 4.0805C14.4326 4.08868 14.4326 4.08868 14.4375 4.09702C14.4891 4.18415 14.5385 4.27231 14.5859 4.36175C14.5887 4.36699 14.5915 4.37223 14.5944 4.37762C14.6153 4.41708 14.6359 4.45675 14.6562 4.49652C14.6591 4.50208 14.6591 4.50208 14.662 4.50775C14.7312 4.64266 14.7956 4.77908 14.8555 4.91839C14.8573 4.92272 14.8592 4.92704 14.8611 4.93149C14.9208 5.06991 14.9751 5.20991 15.0254 5.35199C15.0281 5.3596 15.0281 5.3596 15.0308 5.36737C15.0872 5.52674 15.1383 5.68716 15.1836 5.85003C15.1855 5.85687 15.1855 5.85687 15.1875 5.86384C15.2966 6.2541 15.3695 6.65478 15.4106 7.0578C15.4112 7.06314 15.4118 7.06849 15.4123 7.074C15.4164 7.11307 15.4198 7.15217 15.4229 7.19133C15.4235 7.19992 15.4242 7.2085 15.4249 7.21709C15.4395 7.3998 15.4442 7.5817 15.4437 7.76497C15.4436 7.80004 15.4437 7.83511 15.4438 7.87018C15.4442 8.05099 15.4382 8.23034 15.4238 8.41058C15.4232 8.41826 15.4226 8.42595 15.422 8.43386C15.4188 8.47401 15.4152 8.51408 15.411 8.55413C15.4104 8.55996 15.4098 8.56578 15.4092 8.57178C15.365 9.00268 15.2822 9.43047 15.1602 9.84613C15.1588 9.85079 15.1574 9.85545 15.156 9.86025C15.0691 10.1554 14.9674 10.4467 14.8414 10.7275C14.8335 10.7452 14.8256 10.763 14.8178 10.7808C14.7716 10.886 14.7214 10.9891 14.6702 11.092C14.6671 11.0981 14.6641 11.1042 14.661 11.1105C14.6196 11.1936 14.5758 11.275 14.5295 11.3555C14.5192 11.3736 14.5091 11.3918 14.499 11.41C14.4538 11.4916 14.4066 11.5716 14.3574 11.6508C14.3545 11.6555 14.3517 11.6601 14.3487 11.6649C14.1587 11.9718 13.9434 12.2633 13.7092 12.5379C13.7007 12.5478 13.6923 12.5578 13.6838 12.5678C13.6502 12.6073 13.6159 12.646 13.5807 12.6841C13.569 12.6968 13.5576 12.7096 13.5463 12.7227C13.5057 12.7695 13.4635 12.8149 13.4193 12.8582C13.4094 12.8684 13.4002 12.8787 13.3911 12.8896C13.3628 12.9221 13.3321 12.9524 13.3016 12.9828C13.2914 12.993 13.2813 13.0031 13.2711 13.0133C13.2407 13.0437 13.2103 13.0736 13.1775 13.1015C13.1639 13.1133 13.1513 13.1261 13.1387 13.1391C13.1184 13.1596 13.0977 13.1791 13.0758 13.1978C13.0583 13.2131 13.0414 13.2288 13.0244 13.2446C12.9965 13.2704 12.9683 13.2959 12.9395 13.3207C12.9351 13.3244 12.9351 13.3244 12.9307 13.3282C12.9099 13.3462 12.8889 13.3641 12.868 13.382C12.8612 13.3878 12.8544 13.3937 12.8476 13.3995C12.8059 13.4352 12.7635 13.4698 12.7202 13.5035C12.7027 13.5172 12.6854 13.5311 12.6681 13.545C12.6161 13.5871 12.5627 13.6273 12.5089 13.6672C12.4948 13.6777 12.4807 13.6882 12.4667 13.6987C12.1409 13.9413 11.7917 14.1518 11.4299 14.3361C11.4173 14.3425 11.4047 14.3489 11.3922 14.3554C11.1482 14.4806 10.8942 14.5863 10.6367 14.6801C10.6298 14.6826 10.6298 14.6826 10.6228 14.6852C10.086 14.881 9.52729 15.0081 8.32007 15.117C8.3148 15.1171 8.30953 15.1172 8.30411 15.1174C8.22616 15.1192 8.14828 15.1208 8.07031 15.1196C8.06231 15.1195 8.05431 15.1194 8.04631 15.1192C7.5118 15.1118 6.97951 15.0482 6.45898 14.9262C6.45424 14.9251 6.44949 14.924 6.4446 14.9228C5.93207 14.8026 5.44054 14.622 4.66373 14.243C4.65616 14.2389 4.65616 14.2389 4.64844 14.2348C4.64372 14.2314 4.64372 14.2314 4.6389 14.2279C4.62013 14.2157 4.60755 14.2106 4.58499 14.2134C4.56475 14.2188 4.54518 14.2253 4.52541 14.2323C4.51787 14.2348 4.51032 14.2373 4.50277 14.2398C4.48661 14.2451 4.47049 14.2506 4.4544 14.2561C4.42872 14.265 4.40297 14.2736 4.3772 14.2821C4.3507 14.2909 4.3242 14.2998 4.29773 14.3087C4.22404 14.3334 4.15003 14.357 4.07582 14.3802C3.93866 14.423 3.80195 14.4672 3.6653 14.5116C3.54457 14.5509 3.42373 14.5897 3.30261 14.6277C3.17985 14.6663 3.05734 14.7056 2.93494 14.7453C2.92634 14.7481 2.91774 14.7509 2.90914 14.7537C2.9006 14.7564 2.89205 14.7592 2.8835 14.762C2.86668 14.7674 2.84987 14.7729 2.83306 14.7783C2.82895 14.7797 2.82484 14.781 2.8206 14.7824C2.74487 14.8069 2.66909 14.8313 2.59326 14.8555C2.58477 14.8582 2.58477 14.8582 2.5761 14.861C2.53955 14.8727 2.503 14.8844 2.46645 14.896C2.39897 14.9176 2.3315 14.9391 2.26402 14.9607C2.24573 14.9665 2.22744 14.9723 2.20915 14.9782C2.08399 15.0181 1.95888 15.0583 1.83383 15.0986C1.72711 15.1329 1.62023 15.1667 1.51328 15.2004C1.39753 15.2368 1.28205 15.274 1.16663 15.3115C1.03703 15.3536 0.907395 15.3956 0.777483 15.4367C0.763064 15.4413 0.748648 15.4459 0.734233 15.4505C0.714467 15.4567 0.694691 15.463 0.674911 15.4692C0.666344 15.472 0.666344 15.472 0.657604 15.4747C0.624832 15.485 0.592231 15.4935 0.558594 15.5004C0.565717 15.4657 0.574609 15.4323 0.585939 15.3987C0.587467 15.3941 0.588994 15.3895 0.590568 15.3848C0.595601 15.3697 0.600672 15.3546 0.605743 15.3395C0.609342 15.3287 0.612939 15.3179 0.616533 15.3071C0.624102 15.2845 0.631689 15.2618 0.639289 15.2391C0.648765 15.2108 0.658213 15.1826 0.667649 15.1543C0.707246 15.0356 0.74724 14.9171 0.787767 14.7988C0.819461 14.7062 0.850533 14.6134 0.881346 14.5206C0.895863 14.4768 0.91042 14.4331 0.924988 14.3893C0.926413 14.3851 0.927837 14.3808 0.929305 14.3764C0.953385 14.3041 0.977854 14.232 1.00263 14.1599C1.03949 14.0527 1.07515 13.9451 1.11092 13.8375C1.14695 13.7292 1.1831 13.621 1.22022 13.513C1.25325 13.4169 1.28532 13.3205 1.31738 13.2241C1.35095 13.1231 1.38459 13.0222 1.41919 12.9216C1.45629 12.8137 1.49231 12.7054 1.52832 12.5971C1.56556 12.4851 1.60288 12.3732 1.64128 12.2616C1.66483 12.1931 1.68791 12.1244 1.71081 12.0557C1.71228 12.0513 1.71376 12.0468 1.71528 12.0423C1.73017 11.9975 1.74505 11.9528 1.7599 11.9081C1.76548 11.8913 1.77106 11.8745 1.77665 11.8576C1.77937 11.8494 1.7821 11.8412 1.78482 11.833C1.79899 11.7903 1.81334 11.7477 1.82832 11.7053C1.8308 11.6983 1.83327 11.6912 1.83582 11.684C1.84044 11.6709 1.84511 11.6579 1.84982 11.6448C1.85186 11.639 1.8539 11.6333 1.856 11.6274C1.8578 11.6224 1.85959 11.6174 1.86143 11.6123C1.86786 11.5883 1.86773 11.5737 1.85638 11.5514C1.85218 11.5447 1.84793 11.5381 1.84363 11.5314C1.83874 11.5236 1.83386 11.5157 1.829 11.5078C1.82502 11.5014 1.82502 11.5014 1.82095 11.4948C1.61697 11.1588 1.44999 10.7984 1.30859 10.4321C1.30683 10.4275 1.30507 10.4229 1.30325 10.4182C1.20903 10.1736 1.12878 9.92393 1.0625 9.67035C1.06047 9.6626 1.06047 9.6626 1.0584 9.6547C0.941212 9.20621 0.870846 8.74901 0.838448 8.28687C0.837892 8.27903 0.837892 8.27903 0.837325 8.27103C0.830403 8.16873 0.827179 8.06669 0.827141 7.96417C0.827122 7.95199 0.827102 7.93981 0.827081 7.92763C0.827047 7.90224 0.827036 7.87686 0.827039 7.85147C0.82704 7.82594 0.826999 7.80041 0.826919 7.77488C0.826431 7.61722 0.828749 7.46045 0.839844 7.30316C0.840287 7.29671 0.840731 7.29027 0.841188 7.28362C0.843776 7.24664 0.846781 7.20971 0.850098 7.17279C0.850582 7.16732 0.851067 7.16184 0.851566 7.15621C0.899367 6.62094 1.00322 6.09113 1.18555 5.52777C1.18706 5.52316 1.18857 5.51855 1.19013 5.5138C1.28251 5.23224 1.3926 4.95764 1.51953 4.68988C1.52266 4.68326 1.52579 4.67663 1.52902 4.66981C1.60155 4.51678 1.67788 4.3658 1.76255 4.21908C1.77143 4.20365 1.7802 4.18816 1.78895 4.17265C2.01018 3.78097 2.27438 3.41249 2.56619 3.07039C2.5746 3.06052 2.58298 3.05062 2.59136 3.04071C2.6264 2.99943 2.66236 2.95923 2.69926 2.91961C2.71129 2.9066 2.72307 2.8935 2.73462 2.88006C2.78226 2.82511 2.83273 2.77262 2.88447 2.72153C2.90345 2.70271 2.92112 2.68321 2.93846 2.6629C2.96857 2.62908 3.0011 2.59659 3.03564 2.56732C3.05992 2.54666 3.08208 2.52403 3.10449 2.5014C3.12989 2.47579 3.15518 2.4506 3.18277 2.42733C3.20072 2.41174 3.2179 2.39536 3.23523 2.37909C3.26465 2.35153 3.29482 2.32549 3.3263 2.30028C3.34272 2.28677 3.35838 2.27264 3.37402 2.25824C3.39989 2.23445 3.42651 2.212 3.45386 2.18994C3.46891 2.17767 3.48371 2.16518 3.49846 2.15255C3.53225 2.12364 3.56677 2.09597 3.6022 2.06906C3.61736 2.05755 3.63239 2.04588 3.64738 2.03414C3.70622 1.98801 3.7658 1.94305 3.82624 1.89902C3.83931 1.88949 3.85234 1.8799 3.86536 1.8703C3.93196 1.82147 4.00042 1.77566 4.06933 1.73017C4.08883 1.71726 4.10824 1.70423 4.12764 1.69118C4.55154 1.40676 5.01288 1.17265 5.75 0.893001C5.75622 0.890815 5.75622 0.890815 5.76257 0.888584C6.00571 0.803233 6.25448 0.732739 6.50586 0.676205C6.51083 0.675085 6.51581 0.673966 6.52093 0.672813C7.03949 0.556652 7.56786 0.496472 8.09926 0.498132ZM7.33203 1.77777C7.32716 1.77839 7.32229 1.77901 7.31727 1.77964C6.76916 1.84999 6.23173 2.0039 5.06275 2.55932C5.04762 2.56834 5.03246 2.57729 5.01728 2.58622C4.89077 2.66104 4.76835 2.74164 4.64844 2.8266C4.64086 2.83194 4.63329 2.83728 4.62571 2.84262C4.53982 2.90338 4.45506 2.96576 4.37305 3.03167C4.36929 3.03469 4.36554 3.0377 4.36168 3.0408C4.31142 3.08123 4.2617 3.12225 4.21267 3.16415C4.20268 3.17268 4.19266 3.18118 4.18264 3.18967C4.14363 3.22282 4.10535 3.25658 4.06786 3.29143C4.05466 3.30352 4.04134 3.31536 4.02785 3.32711C3.95098 3.39417 3.87904 3.46648 3.80688 3.53851C3.80275 3.54263 3.79861 3.54675 3.79435 3.551C3.78232 3.56299 3.77031 3.57501 3.75832 3.58703C3.75474 3.59059 3.75117 3.59416 3.74749 3.59783C3.72567 3.61976 3.70502 3.64243 3.68479 3.66583C3.67494 3.67717 3.66479 3.68817 3.6544 3.69902C3.65084 3.70277 3.64728 3.70652 3.6436 3.71038C3.63996 3.71421 3.63632 3.71804 3.63257 3.72198C3.60277 3.7535 3.57447 3.78545 3.54745 3.81939C3.53438 3.83535 3.52063 3.85042 3.50659 3.86554C3.4822 3.89207 3.45979 3.91957 3.43778 3.94806C3.41981 3.97126 3.40135 3.99397 3.38253 4.01649C3.33889 4.06873 3.29822 4.1227 3.25828 4.1778C3.24819 4.19163 3.23799 4.20538 3.22775 4.21909C3.17579 4.2887 3.12636 4.35983 3.07812 4.43206C3.07455 4.43741 3.07098 4.44276 3.0673 4.44826C2.93532 4.64654 2.81654 4.85244 2.70898 5.06488C2.70458 5.07353 2.70017 5.08218 2.69576 5.09083C2.68651 5.10905 2.67745 5.12735 2.66846 5.1457C2.66381 5.15517 2.65912 5.16463 2.6544 5.17407C2.40813 5.66827 2.23851 6.20755 2.12891 6.85199C2.12813 6.85698 2.12735 6.86197 2.12655 6.86712C2.10775 6.98866 2.0921 7.1104 2.08057 7.23285C2.08011 7.23757 2.07966 7.2423 2.0792 7.24716C2.07578 7.28338 2.07292 7.31961 2.07031 7.35589C2.0698 7.36299 2.06929 7.37008 2.06876 7.37739C2.05927 7.51376 2.05644 7.64973 2.05673 7.78641C2.05676 7.80259 2.05678 7.81878 2.05679 7.83496C2.05702 8.00201 2.06054 8.16799 2.07617 8.33441C2.07667 8.33985 2.07717 8.3453 2.07768 8.35091C2.10771 8.67965 2.16338 9.00507 2.24609 9.32464C2.24769 9.33084 2.24769 9.33084 2.24932 9.33716C2.28295 9.46717 2.32158 9.59544 2.36328 9.72308C2.36561 9.73023 2.36794 9.73738 2.37034 9.74475C2.4545 10.0009 2.56066 10.2489 2.67969 10.4907C2.68451 10.5005 2.68451 10.5005 2.68943 10.5106C2.73328 10.6003 2.77947 10.6881 2.82937 10.7746C2.83958 10.7924 2.84943 10.8105 2.85924 10.8286C2.92078 10.9414 2.99076 11.0492 3.06201 11.1561C3.06491 11.1604 3.06782 11.1648 3.07081 11.1693C3.07936 11.1821 3.08794 11.1949 3.09653 11.2077C3.0993 11.2119 3.10208 11.216 3.10494 11.2203C3.11984 11.2423 3.13502 11.2642 3.1506 11.2857C3.15384 11.2902 3.15707 11.2947 3.1604 11.2994C3.16661 11.308 3.17286 11.3165 3.17916 11.3251C3.18196 11.3289 3.18476 11.3328 3.18764 11.3368C3.19135 11.3418 3.19135 11.3418 3.19514 11.347C3.20592 11.3664 3.20828 11.3813 3.20362 11.4031C3.20167 11.4088 3.19971 11.4146 3.1977 11.4205C3.1944 11.4305 3.1944 11.4305 3.19103 11.4406C3.18857 11.4478 3.18611 11.4549 3.18357 11.4623C3.18102 11.4699 3.17848 11.4774 3.17595 11.485C3.16913 11.5053 3.16223 11.5256 3.15531 11.5459C3.14808 11.5671 3.14093 11.5884 3.13378 11.6096C3.11728 11.6585 3.10065 11.7074 3.08398 11.7563C3.08191 11.7624 3.07983 11.7685 3.07769 11.7747C3.06302 11.8178 3.04831 11.8608 3.03354 11.9039C3.0019 11.9961 2.97119 12.0886 2.94043 12.1811C2.90686 12.282 2.87322 12.383 2.83862 12.4836C2.80152 12.5915 2.7655 12.6998 2.72949 12.808C2.692 12.9208 2.65443 13.0334 2.6158 13.1458C2.56166 13.3033 2.50955 13.4615 2.45703 13.6196C2.4747 13.6284 2.48502 13.6214 2.5036 13.6154C2.5072 13.6142 2.51079 13.6131 2.5145 13.6119C2.52656 13.6081 2.5386 13.6041 2.55064 13.6002C2.55918 13.5975 2.56771 13.5947 2.57625 13.592C2.59933 13.5846 2.6224 13.5771 2.64546 13.5697C2.66969 13.5618 2.69393 13.5541 2.71816 13.5463C2.75736 13.5337 2.79654 13.521 2.83572 13.5084C2.88274 13.4932 2.92978 13.4781 2.97682 13.4629C2.98664 13.4598 2.98664 13.4598 2.99666 13.4566C3.00959 13.4524 3.02253 13.4483 3.03546 13.4441C3.05491 13.4379 3.07435 13.4316 3.09379 13.4253C3.21478 13.3864 3.33585 13.3478 3.45693 13.3091C3.58142 13.2694 3.70585 13.2295 3.83023 13.1894C3.93725 13.1549 4.04445 13.121 4.1517 13.0873C4.28708 13.0447 4.42213 13.0011 4.55711 12.9572C4.57362 12.9519 4.59013 12.9465 4.60663 12.9412C4.61787 12.9375 4.62909 12.9339 4.64032 12.9302C4.65397 12.9258 4.66763 12.9214 4.6813 12.917C4.69497 12.9126 4.7086 12.9081 4.72221 12.9035C4.72894 12.9013 4.73567 12.8991 4.74261 12.8968C4.75158 12.8938 4.75158 12.8938 4.76073 12.8908C4.78679 12.8851 4.80145 12.8899 4.82399 12.9035C4.83068 12.9081 4.83735 12.9128 4.84399 12.9175C4.99038 13.018 5.14716 13.105 5.30392 13.188C5.32133 13.1972 5.3387 13.2065 5.35607 13.2158C5.43921 13.2601 5.52402 13.3003 5.60983 13.3391C5.62128 13.3443 5.63271 13.3495 5.64414 13.3547C6.02495 13.5281 6.4252 13.6594 6.83398 13.7485C6.83859 13.7495 6.84319 13.7505 6.84793 13.7515C7.09129 13.8044 7.33772 13.8408 7.58562 13.8642C7.59598 13.8651 7.60634 13.8661 7.6167 13.8671C7.95643 13.9004 8.31319 13.9009 8.6529 13.8671C8.66881 13.8656 8.68473 13.8641 8.70065 13.8626C9.26155 13.8101 9.81472 13.6812 10.8242 13.2621C10.8301 13.2593 10.8361 13.2564 10.8422 13.2535C10.9196 13.2159 10.9951 13.175 11.0703 13.1332C11.0756 13.1303 11.081 13.1273 11.0865 13.1243C11.3026 13.0046 11.5132 12.8713 11.7115 12.7238C11.7162 12.7204 11.7208 12.717 11.7255 12.7135C11.7731 12.6781 11.8203 12.6422 11.8672 12.6059C11.8708 12.6031 11.8745 12.6003 11.8782 12.5974C11.9222 12.5634 11.9651 12.5284 12.0073 12.4923C12.0241 12.478 12.0412 12.4641 12.0583 12.4503C12.0862 12.4276 12.1129 12.4037 12.1393 12.3794C12.1521 12.3677 12.165 12.3562 12.1781 12.3448C12.2712 12.2637 12.36 12.1785 12.4472 12.0911C12.462 12.0762 12.4769 12.0614 12.4919 12.0465C12.5015 12.0369 12.5111 12.0272 12.5207 12.0176C12.5251 12.0132 12.5295 12.0089 12.534 12.0044C12.5576 11.9806 12.5803 11.9564 12.6021 11.9309C12.6181 11.9126 12.6349 11.8951 12.6516 11.8775C12.6804 11.8469 12.7077 11.8157 12.734 11.7828C12.7461 11.768 12.7588 11.7539 12.7717 11.7398C12.7955 11.7137 12.8173 11.6864 12.839 11.6584C12.8559 11.6367 12.8732 11.6154 12.8911 11.5944C12.9291 11.5492 12.964 11.5015 12.9992 11.4541C13.0086 11.4414 13.0181 11.4288 13.0277 11.4162C13.1111 11.3067 13.1874 11.1924 13.2617 11.0766C13.2648 11.0718 13.2679 11.0671 13.271 11.0621C13.3212 10.9844 13.3681 10.9049 13.4141 10.8246C13.4191 10.8158 13.4191 10.8158 13.4243 10.8068C13.4803 10.7088 13.5332 10.6092 13.584 10.5082C13.5858 10.5046 13.5876 10.5011 13.5895 10.4974C13.7687 10.14 13.9084 9.76345 14.0117 9.37738C14.013 9.37253 14.0143 9.36768 14.0157 9.36268C14.1425 8.88846 14.2093 8.39747 14.2168 7.90667C14.217 7.8955 14.217 7.8955 14.2172 7.88409C14.2252 7.35215 14.1612 6.81715 13.918 5.92035C13.9166 5.91602 13.9152 5.9117 13.9137 5.90724C13.8484 5.70621 13.7722 5.50876 13.6836 5.31683C13.6775 5.30353 13.6715 5.29022 13.6654 5.27691C13.6 5.13394 13.5307 4.99369 13.4521 4.8575C13.441 4.83815 13.4305 4.81858 13.4199 4.79898C13.3558 4.68019 13.2823 4.56738 13.2075 4.45514C13.2043 4.45035 13.2012 4.44557 13.1979 4.44065C13.1409 4.35521 13.0825 4.2708 13.0215 4.18817C13.0181 4.18355 13.0147 4.17894 13.0112 4.17419C12.9813 4.13387 12.9501 4.09469 12.9185 4.0557C12.9075 4.042 12.8967 4.02812 12.8859 4.01423C12.8585 3.97892 12.8301 3.94461 12.8008 3.91082C12.7831 3.89042 12.7659 3.86974 12.749 3.84869C12.7265 3.82093 12.7027 3.79464 12.6783 3.76858C12.6629 3.7522 12.6479 3.73563 12.6332 3.71867C12.5645 3.64005 12.4906 3.56627 12.4167 3.49257C12.4006 3.47648 12.3845 3.46035 12.3684 3.44422C12.358 3.43383 12.3476 3.42344 12.3372 3.41306C12.3301 3.40594 12.3301 3.40594 12.3229 3.39867C12.2982 3.37405 12.273 3.3503 12.2465 3.32759C12.2304 3.31364 12.2149 3.29896 12.1993 3.28436C12.1708 3.25779 12.1414 3.23273 12.111 3.2083C12.0957 3.19574 12.081 3.18271 12.0664 3.16937C12.0391 3.14455 12.0109 3.12112 11.9822 3.09797C11.9715 3.08931 11.9608 3.08059 11.9502 3.07186C11.9071 3.03655 11.8637 3.00186 11.8188 2.96886C11.8069 2.96012 11.7951 2.95135 11.7832 2.94257C11.7592 2.92483 11.7352 2.90718 11.7112 2.88955C11.6987 2.88037 11.6863 2.87113 11.6739 2.86187C11.4564 2.70066 11.2209 2.5614 10.9824 2.43402C10.9773 2.43127 10.9722 2.42852 10.9669 2.42568C10.5598 2.20815 10.1275 2.04241 9.68164 1.92425C9.67766 1.92319 9.67368 1.92213 9.66958 1.92104C9.22759 1.80361 8.76949 1.73933 8.31242 1.72795C8.29844 1.7276 8.28446 1.72721 8.27048 1.72683C7.9567 1.71851 7.64327 1.73811 7.33203 1.77777Z" fill="black"/>
<path d="M5.84146 4.23584C5.93483 4.24505 6.02768 4.25235 6.12153 4.25353C6.19977 4.25477 6.26647 4.27178 6.32545 4.3267C6.41492 4.42205 6.46191 4.54791 6.50549 4.6689C6.51025 4.68193 6.51502 4.69495 6.5198 4.70797C6.53219 4.74178 6.54448 4.77562 6.55675 4.80947C6.56861 4.84214 6.58056 4.87477 6.59251 4.9074C6.60883 4.95199 6.62513 4.9966 6.6414 5.04121C6.67948 5.14567 6.71803 5.24996 6.75664 5.35423C6.77109 5.39325 6.78549 5.43229 6.79988 5.47134C6.84211 5.58597 6.88462 5.70048 6.92773 5.81478C6.93075 5.82281 6.93075 5.82281 6.93383 5.831C6.95708 5.89273 6.98077 5.95423 7.00578 6.01527C7.04131 6.10276 7.05079 6.18589 7.02111 6.27694C7.00893 6.30528 6.99495 6.33249 6.98046 6.3597C6.97852 6.3634 6.97657 6.3671 6.97457 6.37092C6.91185 6.49019 6.83553 6.58939 6.74405 6.6875C6.72805 6.70477 6.71249 6.72233 6.69708 6.74012C6.6765 6.76374 6.65538 6.78688 6.63439 6.81014C6.63085 6.81418 6.62732 6.81822 6.62367 6.82239C6.59821 6.85122 6.57189 6.87882 6.54442 6.90572C6.54117 6.90891 6.53791 6.91211 6.53456 6.9154C6.52113 6.92856 6.50769 6.94172 6.49416 6.95479C6.45428 6.99339 6.41935 7.02944 6.39416 7.07967C6.39215 7.08347 6.39013 7.08728 6.38806 7.0912C6.36359 7.13987 6.37068 7.20895 6.38684 7.25911C6.50827 7.55915 6.72638 7.8481 6.92274 8.10314C6.93165 8.11473 6.94051 8.12636 6.94934 8.13802C7.02607 8.23898 7.10812 8.33626 7.19428 8.42929C7.20605 8.44211 7.21747 8.4551 7.22875 8.46834C7.24934 8.49215 7.2717 8.51403 7.29409 8.53612C7.31078 8.55265 7.32672 8.56942 7.34191 8.58736C7.35801 8.60624 7.37544 8.62198 7.39435 8.63799C7.41127 8.65304 7.42709 8.66902 7.44299 8.68514C7.46562 8.70802 7.4885 8.73009 7.51303 8.75096C7.5277 8.76362 7.54189 8.77675 7.55615 8.78987C7.58245 8.81386 7.60947 8.83663 7.63717 8.85897C7.6518 8.87091 7.66618 8.88309 7.6805 8.8954C7.72462 8.93329 7.77055 8.96853 7.81695 9.00358C7.82939 9.01302 7.84175 9.02256 7.85408 9.03215C8.04643 9.18134 8.25409 9.3131 8.46947 9.42645C8.48509 9.43468 8.50066 9.443 8.51621 9.45134C8.59096 9.49114 8.66693 9.52839 8.74304 9.56551C8.74813 9.56799 8.75323 9.57048 8.75847 9.57304C8.81089 9.59858 8.8634 9.62395 8.91609 9.64891C8.92012 9.65083 8.92414 9.65275 8.92829 9.65472C8.99385 9.68563 9.06413 9.69999 9.13593 9.68304C9.15057 9.67759 9.16374 9.67126 9.17736 9.66365C9.18138 9.66158 9.1854 9.6595 9.18954 9.65736C9.25071 9.62145 9.30226 9.56052 9.34767 9.50673C9.36462 9.48728 9.38236 9.46859 9.40002 9.44979C9.42436 9.42383 9.44846 9.39778 9.47168 9.3708C9.48562 9.35489 9.49995 9.33936 9.51428 9.32381C9.54477 9.29065 9.57454 9.25699 9.60379 9.22274C9.60984 9.21566 9.61589 9.20858 9.62194 9.2015C9.62499 9.19793 9.62803 9.19436 9.63117 9.19069C9.64892 9.16996 9.66692 9.14953 9.6853 9.12935C9.70963 9.1025 9.73254 9.07466 9.75532 9.04649C9.76448 9.03525 9.77374 9.02409 9.78301 9.01294C9.81398 8.97564 9.84479 8.93843 9.87353 8.89937C9.92078 8.83585 9.97072 8.77645 10.0504 8.75545C10.2126 8.74012 10.3591 8.82627 10.4993 8.89703C10.5191 8.90704 10.539 8.917 10.5588 8.92695C10.6297 8.96252 10.7003 8.99868 10.7703 9.03592C10.7826 9.04242 10.7948 9.0489 10.8071 9.05538C10.8306 9.06781 10.8542 9.08027 10.8777 9.09273C10.8819 9.09495 10.8861 9.09717 10.8904 9.09945C10.9209 9.11564 10.9515 9.13183 10.9821 9.14803C10.9862 9.15022 10.9903 9.15242 10.9946 9.15468C11.0977 9.20932 11.2006 9.26422 11.3033 9.31965C11.3224 9.32995 11.3415 9.34024 11.3607 9.35052C11.425 9.38513 11.4894 9.41983 11.5534 9.45498C11.5837 9.47153 11.614 9.48782 11.6445 9.50387C11.8907 9.63361 11.8907 9.63361 11.9225 9.71273C12.0055 9.98363 11.8708 10.4049 11.7438 10.648C11.6713 10.7754 11.566 10.8866 11.4508 10.9762C11.4423 10.9832 11.4423 10.9832 11.4335 10.9904C11.1601 11.2143 10.802 11.3926 10.4485 11.4292C10.3861 11.4359 10.3248 11.4459 10.2633 11.4583C10.0816 11.4943 9.90017 11.4643 9.72228 11.4215C9.71588 11.42 9.70947 11.4184 9.70287 11.4169C9.47615 11.3626 9.25382 11.2833 9.03674 11.1988C9.03201 11.197 9.02729 11.1951 9.02242 11.1933C8.79713 11.1058 8.57382 11.0135 8.35219 10.9172C8.3393 10.9116 8.32641 10.906 8.31351 10.9005C8.13183 10.8218 7.95366 10.7366 7.78283 10.6363C7.77207 10.6301 7.7613 10.6238 7.75054 10.6176C7.59409 10.5265 7.44267 10.4267 7.2965 10.3199C7.29014 10.3153 7.29014 10.3153 7.28366 10.3106C7.19356 10.2449 7.10628 10.1764 7.01997 10.1059C7.01067 10.0983 7.00135 10.0907 6.99202 10.0832C6.95548 10.0535 6.91964 10.0231 6.88399 9.99233C6.8703 9.98053 6.85656 9.96881 6.84274 9.95717C6.7967 9.91827 6.75249 9.87773 6.70871 9.8363C6.69166 9.82018 6.67432 9.80444 6.65673 9.7889C6.62999 9.76508 6.6049 9.7398 6.57973 9.71435C6.56352 9.69801 6.54726 9.68217 6.52966 9.66732C6.47877 9.62402 6.43094 9.575 6.38791 9.52392C6.37119 9.50531 6.35334 9.48789 6.33557 9.47029C6.31114 9.44609 6.2873 9.42187 6.26507 9.39561C6.24804 9.37611 6.23024 9.35734 6.21252 9.33846C6.1846 9.30865 6.157 9.27872 6.13049 9.24764C6.12536 9.24166 6.12023 9.23567 6.11511 9.22969C6.10621 9.21932 6.09733 9.20895 6.08845 9.19856C6.07272 9.18017 6.05693 9.16185 6.04097 9.14366C6.00723 9.10513 5.97444 9.06621 5.9431 9.0257C5.92534 9.00282 5.90695 8.98064 5.88806 8.9587C5.85679 8.92224 5.82773 8.88426 5.79875 8.84597C5.78221 8.82415 5.76542 8.80255 5.74854 8.781C5.70276 8.72257 5.65855 8.6631 5.61486 8.60311C5.61173 8.59882 5.6086 8.59453 5.60537 8.59012C5.58296 8.55942 5.56075 8.52859 5.53869 8.49764C5.53536 8.49297 5.53203 8.4883 5.5286 8.48349C5.47412 8.4068 5.42195 8.32865 5.37023 8.25008C5.36567 8.24315 5.36567 8.24315 5.36101 8.23608C5.30682 8.15375 5.25417 8.0705 5.2019 7.98695C5.17679 7.94683 5.15103 7.90724 5.12456 7.86801C5.04199 7.74553 4.96598 7.61982 4.89717 7.48907C4.8884 7.47244 4.87954 7.45587 4.87065 7.43931C4.62659 6.98158 4.45478 6.4584 4.57593 5.38726C4.66343 5.107 4.80872 4.85097 5.0081 4.63514C5.01583 4.62666 5.02355 4.61816 5.03099 4.60941C5.06454 4.57001 5.10099 4.53344 5.13745 4.49676C5.14512 4.48902 5.15277 4.48126 5.16038 4.47346C5.22503 4.40735 5.29336 4.34573 5.37646 4.30342C5.38055 4.30132 5.38463 4.29921 5.38884 4.29704C5.45154 4.26575 5.51739 4.24505 5.5863 4.23275C5.59013 4.23204 5.59397 4.23133 5.59792 4.23061C5.67853 4.21806 5.76092 4.22786 5.84146 4.23584Z" fill="black"/>
</svg>
